<svg width="420" height="120" viewBox="0 0 420 120" fill="none" xmlns="http://www.w3.org/2000/svg">
  <rect width="420" height="120" rx="24" fill="#FFFFFF"/>
  <g transform="translate(20,20)">
    <circle cx="40" cy="40" r="38" fill="#10A37F"/>
    <path d="M40 17C46.9 17 52.9 20.5 56.5 25.8C63 26.5 68 31.9 68 38.5C68 42.8 65.9 46.7 62.6 49.2C63.3 56.2 59.6 62.7 53.6 66.2C49.8 72.1 43.2 76 35.6 76C31.2 76 27 74.7 23.4 72.3C16.6 73 10.5 68.8 8.4 62.2C3.3 58.8 0 52.9 0 46.2C0 41.8 1.5 37.7 4.1 34.4C3.3 27.4 7 20.9 13 17.3C16.8 11.3 23.4 7.4 31 7.4C35.4 7.4 39.6 8.8 43.2 11.1C49.6 10.5 55.5 13.1 59.2 18" stroke="#FFFFFF" stroke-width="5.5" stroke-linecap="round" stroke-linejoin="round"/>
    <path d="M22 29.5L47 44" stroke="#FFFFFF" stroke-width="5.5" stroke-linecap="round"/>
    <path d="M22.4 55L47.4 69.2" stroke="#FFFFFF" stroke-width="5.5" stroke-linecap="round"/>
    <path d="M40.4 18.8V47.5" stroke="#FFFFFF" stroke-width="5.5" stroke-linecap="round"/>
    <path d="M55.8 46.1L31.2 60.5" stroke="#FFFFFF" stroke-width="5.5" stroke-linecap="round"/>
    <path d="M55.8 72L55.8 43.6" stroke="#FFFFFF" stroke-width="5.5" stroke-linecap="round"/>
    <path d="M24.7 46.1L49.3 31.8" stroke="#FFFFFF" stroke-width="5.5" stroke-linecap="round"/>
  </g>
  <text x="112" y="74" font-family="Inter, system-ui, -apple-system, Segoe UI, Roboto, Helvetica, Arial" font-size="44" font-weight="700" fill="#0F172A">ChatGPT</text>
</svg>
